<svg width="93" height="988" viewBox="0 0 93 988" fill="none" xmlns="http://www.w3.org/2000/svg">
<mask id="mask0_3_15" style="mask-type:alpha" maskUnits="userSpaceOnUse" x="4" y="0" width="85" height="980">
<path d="M59.5 978C62.3243 972.5 61.0909 949.458 65.5 948C69.9091 946.542 76.1476 871.072 71.5 870.5C66.4088 843.767 64.9912 828.773 69 802C60.845 766.517 63.4183 749.655 69 720C65.6305 691.921 72.7643 660 71.5 653C70.2357 646 63.1708 609.971 66.315 579C62.4657 552.812 65.6924 516.873 71.5 511C62.7003 463.47 66.9564 438.334 71.5 393C61.2372 329.023 68.9786 297.404 78 239.5C70.2393 180.615 71.1812 147.758 84.5 89.5C78.1924 54.5454 80.8974 35.2675 88 1H5V15.5C13.8467 56.7134 15.2148 79.8138 8.5 121C8.96843 120.232 20.0354 176.122 15.5 233C10.9646 289.878 10.8967 322.294 15.5 385C21.3493 440.083 26.3876 470.975 21.5 526C15.8995 573.306 16.7742 596.012 21.5 633.5C28.3351 663.909 28.087 680.407 21.5 709C26.2507 732.991 25.4628 745.468 21.5 767C19.9632 793.867 18.435 809.123 29 832.5C30.2283 854.347 26.899 862.678 24 880.5C26.0455 896.778 23.8568 907.483 18 927.5C18 927.5 25.5 939.5 25.5 948C25.5 956.5 38 970 38 970C38 970 56.6757 983.5 59.5 978Z" fill="black" stroke="black"/>
</mask>
<g mask="url(#mask0_3_15)">
<rect x="-6" y="-17" width="105" height="1014.55" fill="black"/>
</g>
</svg>
